<svg width="60" height="60" viewBox="0 0 60 60" fill="none" xmlns="http://www.w3.org/2000/svg">
<rect width="60" height="60" rx="10" fill="#FDFCFA"/>
<g clip-path="url(#clip0_40_119)">
<path fill-rule="evenodd" clip-rule="evenodd" d="M32.2496 34.0252L38.8742 27.591C39.6649 26.8227 40.9374 26.8339 41.713 27.6151C42.4905 28.3964 42.4792 29.6538 41.6886 30.4202L33.0553 38.8035C31.4928 40.3214 28.9872 40.3214 27.4245 38.8035L18.7912 30.4202C18.0006 29.6519 17.9892 28.3945 18.7668 27.6151C19.5442 26.8339 20.8168 26.8227 21.6056 27.591L28.2302 34.0252V12.1429C28.2302 11.0472 29.13 10.1581 30.2388 10.1581C31.3477 10.1581 32.2475 11.0472 32.2475 12.1429V34.0252H32.2496ZM45.8038 35.9523C45.8038 34.8567 46.7037 33.9676 47.8106 33.9676C48.9195 33.9676 49.8193 34.8567 49.8193 35.9523V43.8895C49.8193 47.1763 47.1216 49.8419 43.7952 49.8419H16.1841C12.8577 49.8419 10.16 47.1763 10.16 43.8895V35.9523C10.16 34.8567 11.0599 33.9676 12.1687 33.9676C13.2775 33.9676 14.1774 34.8567 14.1774 35.9523V43.8895C14.1774 44.9851 15.0754 45.8724 16.1842 45.8724H43.7953C44.9041 45.8724 45.8039 44.9851 45.8039 43.8895L45.8038 35.9523Z" fill="#222222"/>
</g>
<defs>
<clipPath id="clip0_40_119">
<rect width="40" height="40" fill="white" transform="translate(10 10)"/>
</clipPath>
</defs>
</svg>
