<svg width="60" height="60" viewBox="0 0 60 60" fill="none" xmlns="http://www.w3.org/2000/svg">
<rect width="60" height="60" rx="10" fill="#FDFCFA"/>
<g clip-path="url(#clip0_40_111)">
<path d="M23.9614 29.3077C25.7369 29.3077 27.2639 28.214 27.896 26.6586C26.9816 25.5986 25.151 23.4608 24.2383 22.3972C24.1211 22.1362 23.5263 22.1007 23.3647 22.3333C22.9386 22.9583 22.6616 23.3702 22.477 23.6401L22.967 24.2793C23.7962 25.4015 22.1449 26.6763 21.2767 25.579C20.6534 24.7658 18.0025 21.3159 17.3278 20.4386C17.2639 20.3534 17.1005 20.2894 16.9301 20.2894C16.7596 20.2877 16.5892 20.3516 16.5181 20.4386C15.3995 21.7383 11.7949 25.9199 10.7386 27.1554C11.4701 28.4409 12.8479 29.3074 14.4318 29.3074L23.9614 29.3077Z" fill="#222222"/>
<path d="M14.8791 19.0891C15.7846 17.8497 18.1248 17.8657 19.0197 19.1459L21.1078 21.859C21.2569 21.6459 21.4203 21.4045 21.605 21.1345C22.4839 19.7407 24.9288 19.7052 25.8805 21.0351C25.9125 21.0724 28.1088 23.6327 28.2101 23.7482V14.3609C28.2101 12.0172 26.3067 10.1137 23.9629 10.1137H14.4333C12.0896 10.1137 10.1862 12.0172 10.1862 14.3609V24.5368C11.3367 23.2016 13.7213 20.4371 14.8807 19.0914L14.8791 19.0891ZM21.1913 12.855C24.517 12.9615 24.5081 17.7841 21.1913 17.8905C17.8728 17.7857 17.8675 12.9632 21.1913 12.855Z" fill="#222222"/>
<path d="M45.5682 30.6923H36.0386C33.6949 30.6923 31.7914 32.5957 31.7914 34.9323V45.115L33.9221 42.6364L36.486 39.6605C36.9282 39.0959 37.7112 38.7336 38.5457 38.7372C39.3838 38.7372 40.1579 39.1065 40.6266 39.7173L42.7147 42.4375C43.7676 40.3548 46.2286 39.9055 47.6865 41.848L49.8172 44.3267V34.9321C49.8172 32.5955 47.9138 30.6921 45.57 30.6921L45.5682 30.6923ZM42.8001 38.4605C39.478 38.3575 39.478 33.5405 42.8001 33.4323C46.1222 33.5388 46.1204 38.3577 42.8001 38.4605Z" fill="#222222"/>
<path d="M45.845 42.9777C45.7278 42.7132 45.1383 42.6812 44.9714 42.9067C44.5382 43.5388 44.2683 43.9507 44.0907 44.2277L44.5737 44.8598C45.4029 45.9873 43.7551 47.2479 42.8833 46.1595L41.9458 44.9379L38.9345 41.0175C38.8013 40.8257 38.2633 40.8204 38.1248 41.0175C37.0045 42.3207 33.4035 46.497 32.3453 47.7343C33.0768 49.0198 34.4546 49.8863 36.0385 49.8863H45.568C47.3507 49.8863 48.8776 48.7854 49.5026 47.23C48.59 46.17 46.7594 44.0358 45.845 42.9758L45.845 42.9777Z" fill="#222222"/>
<path d="M27.8427 41.8909H19.9982C18.5564 41.8909 17.381 40.7173 17.381 39.2755V36.3121L19.3324 38.2635C19.7479 38.6789 20.4226 38.6789 20.8381 38.2635C21.2535 37.848 21.2535 37.1733 20.8381 36.7578L17.0703 32.99C16.6939 32.5798 15.9392 32.5781 15.5628 32.99L11.7951 36.7578C10.8238 37.7645 12.2922 39.2365 13.3007 38.2635L15.2503 36.3139V39.2773C15.2503 41.8945 17.3792 44.0232 19.9962 44.0232H27.8408C29.2364 43.9983 29.2452 41.9191 27.8408 41.8925L27.8427 41.8909Z" fill="#222222"/>
<path d="M32.9955 17.6882H40.84C42.2818 17.6882 43.4554 18.8618 43.4554 20.3036V23.267L41.5058 21.3174C41.0903 20.9019 40.4156 20.9019 40.0001 21.3174C39.5847 21.7329 39.5847 22.4076 40.0001 22.8231L43.7679 26.5909C44.1656 27.001 44.8776 27.0028 45.2754 26.5909L49.0431 22.8231C50.0144 21.8181 48.546 20.3426 47.5375 21.3174L45.5861 23.267V20.3036C45.5861 17.6864 43.4572 15.5577 40.8402 15.5577H32.9956C31.6 15.5825 31.591 17.6615 32.9955 17.6882Z" fill="#222222"/>
</g>
<defs>
<clipPath id="clip0_40_111">
<rect width="40" height="40" fill="white" transform="translate(10 10)"/>
</clipPath>
</defs>
</svg>
