<svg width="60" height="60" viewBox="0 0 60 60" fill="none" xmlns="http://www.w3.org/2000/svg">
<rect width="60" height="60" rx="10" fill="#FDFCFA"/>
<g clip-path="url(#clip0_40_122)">
<path d="M44.7934 40.6021C44.7934 44.0477 41.9955 46.8454 38.55 46.8454H19.4046C15.959 46.8454 13.1613 44.0476 13.1613 40.6021V21.4567C13.1613 18.011 15.9591 15.2133 19.4046 15.2133H30.2446C31.187 14.4191 31.9536 13.4165 32.4826 12.2674H19.4047C14.3397 12.2674 10.2151 16.3917 10.2151 21.457V40.6024C10.2151 45.669 14.3394 49.792 19.4047 49.792H38.5501C43.6168 49.792 47.7397 45.6692 47.7397 40.6024V27.554C46.5906 28.0846 45.5896 28.8789 44.7937 29.8213L44.7934 40.6021Z" fill="#222222"/>
<path d="M48.675 20.6267C44.0658 19.5101 40.5108 15.9442 39.3975 11.32C39.238 10.6641 38.6537 10.2083 37.9766 10.2083H37.9733C37.2946 10.2083 36.712 10.6673 36.5557 11.32C35.4424 15.9442 31.8878 19.51 27.2799 20.6267C26.6272 20.7829 26.1698 21.3672 26.1682 22.0427C26.1666 22.723 26.6207 23.3057 27.2783 23.4685C31.8145 24.5655 35.4587 28.2064 36.5558 32.7476C36.7153 33.4003 37.2996 33.8544 37.9767 33.8544H37.9783C38.657 33.8544 39.2397 33.3986 39.3959 32.7443C40.4946 28.2081 44.1372 24.5656 48.6751 23.4685C48.6751 23.4685 48.6751 23.4669 48.6767 23.4669C49.3326 23.3074 49.7868 22.7214 49.7851 22.0427C49.7835 21.3656 49.3261 20.7845 48.675 20.6267Z" fill="#222222"/>
<path d="M24.4354 28.0388C23.6948 31.1117 21.3332 33.4813 18.2716 34.2238C17.8387 34.3279 17.5343 34.7153 17.5327 35.1645C17.5311 35.6153 17.8338 36.0043 18.27 36.1118C21.2843 36.8409 23.7046 39.2595 24.4354 42.2772C24.5412 42.7101 24.9286 43.0128 25.3794 43.0128H25.3811C25.8319 43.0128 26.2193 42.7101 26.3234 42.2755C27.0542 39.2612 29.4728 36.841 32.4888 36.1118C32.4888 36.1118 32.4888 36.1102 32.4905 36.1102C32.9267 36.0044 33.2278 35.6154 33.2278 35.1645C33.2261 34.7137 32.9218 34.3263 32.4905 34.2238C29.4273 33.4816 27.0655 31.1118 26.3251 28.0388C26.2193 27.6026 25.8319 27.2999 25.3811 27.2999H25.3794C24.927 27.2999 24.5396 27.6058 24.4354 28.0388Z" fill="#222222"/>
</g>
<defs>
<clipPath id="clip0_40_122">
<rect width="40" height="40" fill="white" transform="translate(10 10)"/>
</clipPath>
</defs>
</svg>
