<svg width="175" height="127" viewBox="0 0 175 127" fill="none" xmlns="http://www.w3.org/2000/svg">
<path d="M118.242 52.1263C114.969 52.1263 112.095 51.4477 109.621 50.0907C107.186 48.6937 105.29 46.758 103.933 44.2834C102.616 41.7689 101.958 38.8552 101.958 35.5424C101.958 32.2297 102.616 29.336 103.933 26.8614C105.29 24.3469 107.186 22.4111 109.621 21.054C112.095 19.6571 114.969 18.9586 118.242 18.9586C121.475 18.9586 124.309 19.6571 126.744 21.054C129.218 22.4111 131.134 24.3469 132.491 26.8614C133.848 29.336 134.527 32.2297 134.527 35.5424C134.527 38.8552 133.848 41.7689 132.491 44.2834C131.134 46.758 129.218 48.6937 126.744 50.0907C124.309 51.4477 121.475 52.1263 118.242 52.1263ZM118.242 45.2413C120.477 45.2413 122.193 44.4031 123.391 42.7268C124.628 41.0105 125.247 38.6157 125.247 35.5424C125.247 32.4691 124.628 30.0943 123.391 28.418C122.193 26.7017 120.477 25.8436 118.242 25.8436C116.007 25.8436 114.271 26.7017 113.033 28.418C111.796 30.0943 111.177 32.4691 111.177 35.5424C111.177 38.6157 111.796 41.0105 113.033 42.7268C114.271 44.4031 116.007 45.2413 118.242 45.2413Z" fill="#222222"/>
<path d="M101.958 26.602H91.241V51.6873H82.2007V26.602H71.4242V19.9565H101.958V26.602Z" fill="#222222"/>
<path d="M55.1397 52.1263C51.8668 52.1263 48.9931 51.4477 46.5185 50.0907C44.0838 48.6937 42.188 46.758 40.8309 44.2834C39.5138 41.7689 38.8552 38.8552 38.8552 35.5424C38.8552 32.2297 39.5138 29.336 40.8309 26.8614C42.188 24.3469 44.0838 22.4111 46.5185 21.054C48.9931 19.6571 51.8668 18.9586 55.1397 18.9586C58.3726 18.9586 61.2065 19.6571 63.6411 21.054C66.1157 22.4111 68.0316 24.3469 69.3886 26.8614C70.7456 29.336 71.4242 32.2297 71.4242 35.5424C71.4242 38.8552 70.7456 41.7689 69.3886 44.2834C68.0316 46.758 66.1157 48.6937 63.6411 50.0907C61.2065 51.4477 58.3726 52.1263 55.1397 52.1263ZM55.1397 45.2413C57.3748 45.2413 59.0911 44.4031 60.2885 42.7268C61.5258 41.0105 62.1444 38.6157 62.1444 35.5424C62.1444 32.4691 61.5258 30.0943 60.2885 28.418C59.0911 26.7017 57.3748 25.8436 55.1397 25.8436C52.9046 25.8436 51.1684 26.7017 49.9311 28.418C48.6938 30.0943 48.0751 32.4691 48.0751 35.5424C48.0751 38.6157 48.6938 41.0105 49.9311 42.7268C51.1684 44.4031 52.9046 45.2413 55.1397 45.2413Z" fill="#222222"/>
<path fill-rule="evenodd" clip-rule="evenodd" d="M2.33491 18.6194C0.778302 20.8545 0 23.4688 0 26.4623C0 29.4557 0.778302 32.07 2.33491 34.3052C3.93142 36.5403 6.1865 38.2565 9.10015 39.4539C10.9797 40.2263 13.0751 40.7496 15.3864 41.0237V51.4877H23.4688V41.0166C25.7565 40.7405 27.8319 40.2197 29.6952 39.4539C32.6488 38.2565 34.9038 36.5403 36.4604 34.3052C38.057 32.07 38.8552 29.4557 38.8552 26.4623C38.8552 23.4688 38.057 20.8545 36.4604 18.6194C34.9038 16.3843 32.6488 14.668 29.6952 13.4706C27.8319 12.7049 25.7565 12.184 23.4688 11.9079V0H15.3864V11.9008C13.0751 12.1749 10.9797 12.6982 9.10015 13.4706C6.1865 14.668 3.93142 16.3843 2.33491 18.6194ZM15.3864 19.1209C13.9847 19.4678 12.7873 20.0191 11.7943 20.7747C9.95827 22.1716 9.04028 24.0675 9.04028 26.4623C9.04028 28.857 9.95827 30.7529 11.7943 32.1499C12.7873 32.9054 13.9847 33.4567 15.3864 33.8036C16.5763 34.098 17.9134 34.2453 19.3977 34.2453C20.8121 34.2453 22.0928 34.1116 23.2398 33.8442C23.3168 33.8263 23.3931 33.8077 23.4688 33.7886C24.8448 33.4409 26.0222 32.8947 27.0011 32.1499C28.877 30.7529 29.8149 28.857 29.8149 26.4623C29.8149 24.0675 28.877 22.1716 27.0011 20.7747C26.0222 20.0299 24.8448 19.4836 23.4688 19.1359C22.264 18.8315 20.9069 18.6792 19.3977 18.6792C17.9833 18.6792 16.7025 18.8129 15.5555 19.0803C15.4988 19.0935 15.4425 19.1071 15.3864 19.1209Z" fill="#222222"/>
<path d="M165.04 89.7043C164.8 87.8283 164.102 86.3715 162.944 85.3338C161.827 84.2561 160.45 83.7173 158.813 83.7173C156.578 83.7173 154.842 84.5754 153.605 86.2917C152.368 87.968 151.749 90.3429 151.749 93.4162C151.749 96.4894 152.368 98.8842 153.605 100.6C154.842 102.277 156.578 103.115 158.813 103.115C160.53 103.115 161.947 102.576 163.064 101.499C164.222 100.421 164.94 98.8643 165.219 96.8287L174.499 97.1879C174.22 99.7823 173.362 102.057 171.925 104.013C170.528 105.929 168.692 107.406 166.417 108.443C164.142 109.481 161.607 110 158.813 110C155.581 110 152.727 109.321 150.252 107.964C147.778 106.567 145.862 104.632 144.505 102.157C143.188 99.6426 142.529 96.7289 142.529 93.4162C142.529 90.1034 143.188 87.2097 144.505 84.7351C145.862 82.2206 147.778 80.2848 150.252 78.9278C152.727 77.5308 155.581 76.8323 158.813 76.8323C161.528 76.8323 164.002 77.3313 166.237 78.3291C168.512 79.3269 170.348 80.7837 171.745 82.6995C173.142 84.5754 173.98 86.7707 174.26 89.2852L165.04 89.7043Z" fill="#222222"/>
<path d="M78.9158 66.8541V95.9508L95.7391 66.8541H105.737V109.361H96.6375V81.2233L80.1737 109.361H69.6678V81.2223L53.2039 109.361H42.8465V77.8297H51.9461V95.9508L68.7694 66.8541H78.9158Z" fill="#FF6E1F"/>
<path fill-rule="evenodd" clip-rule="evenodd" d="M2.3349 76.4931C0.778298 78.7282 0 81.3425 0 84.336C0 87.3295 0.778298 89.9437 2.3349 92.1789C3.93142 94.414 6.18651 96.1302 9.10015 97.3276C10.9797 98.1 13.0751 98.6233 15.3864 98.8975V109.361H23.4688V98.8903C25.7565 98.6143 27.8319 98.0934 29.6952 97.3276C32.6488 96.1302 34.9039 94.414 36.4605 92.1789C38.057 89.9437 38.8552 87.3295 38.8552 84.336C38.8552 81.3425 38.057 78.7282 36.4605 76.4931C34.9039 74.258 32.6488 72.5417 29.6952 71.3443C27.8319 70.5786 25.7565 70.0577 23.4688 69.7817V57.8737H15.3864V69.7745C13.0751 70.0486 10.9797 70.5719 9.10015 71.3443C6.18651 72.5417 3.93142 74.258 2.3349 76.4931ZM15.3864 76.9947C13.9847 77.3416 12.7873 77.8928 11.7943 78.6484C9.95828 80.0453 9.04027 81.9412 9.04027 84.336C9.04027 86.7308 9.95828 88.6266 11.7943 90.0236C12.7873 90.7792 13.9847 91.3304 15.3864 91.6773C16.5763 91.9718 17.9134 92.119 19.3977 92.119C20.8121 92.119 22.0928 91.9853 23.2398 91.7179C23.3168 91.7 23.3931 91.6815 23.4688 91.6623C24.8448 91.3146 26.0222 90.7684 27.0011 90.0236C28.877 88.6266 29.815 86.7308 29.815 84.336C29.815 81.9412 28.877 80.0453 27.0011 78.6484C26.0222 77.9036 24.8448 77.3573 23.4688 77.0096C22.264 76.7052 20.9069 76.553 19.3977 76.553C17.9833 76.553 16.7025 76.6867 15.5555 76.954C15.4988 76.9673 15.4425 76.9808 15.3864 76.9947Z" fill="#222222"/>
<path d="M118.769 77.8302V109.561H109.729V77.8302H118.769ZM141.34 77.8302L128.588 93.6956H118.29L130.743 77.8302H141.34ZM118.29 93.6956H128.588L142.058 109.561H131.342L118.29 93.6956Z" fill="#222222"/>
<path d="M75.5381 113.06V117.106C75.7434 116.611 76.0748 116.21 76.5321 115.902C76.9894 115.594 77.4841 115.44 78.0161 115.44C78.6508 115.44 79.2014 115.599 79.6681 115.916C80.1348 116.224 80.4941 116.672 80.7461 117.26C80.9981 117.839 81.1241 118.515 81.1241 119.29C81.1241 120.074 80.9981 120.76 80.7461 121.348C80.4941 121.927 80.1348 122.375 79.6681 122.692C79.2014 123.009 78.6508 123.168 78.0161 123.168C77.4748 123.168 76.9754 123.014 76.5181 122.706C76.0608 122.389 75.7108 121.964 75.4681 121.432L75.4261 123H74.8661V113.06H75.5381ZM75.4821 119.29C75.4821 119.925 75.5848 120.489 75.7901 120.984C75.9954 121.469 76.2848 121.847 76.6581 122.118C77.0314 122.389 77.4608 122.524 77.9461 122.524C78.7021 122.524 79.3041 122.235 79.7521 121.656C80.2001 121.068 80.4241 120.279 80.4241 119.29C80.4241 118.31 80.2001 117.531 79.7521 116.952C79.3041 116.364 78.7021 116.07 77.9461 116.07C77.4608 116.07 77.0314 116.205 76.6581 116.476C76.2848 116.747 75.9954 117.125 75.7901 117.61C75.5848 118.095 75.4821 118.655 75.4821 119.29ZM82.5061 115.58L85.1101 122.286L87.5601 115.58H88.2741L85.1801 123.938C85.0307 124.349 84.8254 124.643 84.5641 124.82C84.3027 125.007 83.9574 125.1 83.5281 125.1H82.8421V124.498H83.5001C83.7987 124.498 84.0274 124.433 84.1861 124.302C84.3447 124.171 84.4987 123.919 84.6481 123.546L84.9141 122.86H84.6341L81.7781 115.58H82.5061ZM94.4304 113.06L100.156 122.23V113.06H100.856V123H99.8344L94.1364 113.886V123H93.4364V113.06H94.4304ZM104.017 115.58V123H103.345V115.58H104.017ZM104.045 113.284V114.39H103.317V113.284H104.045ZM105.876 119.29C105.876 118.553 106.002 117.89 106.254 117.302C106.506 116.714 106.875 116.252 107.36 115.916C107.855 115.58 108.438 115.412 109.11 115.412C109.745 115.412 110.3 115.571 110.776 115.888C111.252 116.205 111.616 116.653 111.868 117.232C112.13 117.811 112.265 118.478 112.274 119.234L112.288 119.472H106.59C106.618 120.415 106.856 121.157 107.304 121.698C107.752 122.239 108.354 122.51 109.11 122.51C109.614 122.51 110.067 122.37 110.468 122.09C110.879 121.801 111.182 121.409 111.378 120.914L112.106 120.97C111.892 121.642 111.509 122.179 110.958 122.58C110.417 122.972 109.801 123.168 109.11 123.168C108.438 123.168 107.855 123 107.36 122.664C106.875 122.328 106.506 121.866 106.254 121.278C106.002 120.69 105.876 120.027 105.876 119.29ZM111.546 118.856C111.481 117.96 111.229 117.274 110.79 116.798C110.361 116.313 109.801 116.07 109.11 116.07C108.392 116.07 107.808 116.317 107.36 116.812C106.922 117.307 106.67 117.988 106.604 118.856H111.546ZM114.483 122.37H119.649V123H113.713V122.3L118.781 116.21H113.853V115.58H119.537V116.294L114.483 122.37ZM124.273 123.168C123.619 123.168 123.05 123.009 122.565 122.692C122.079 122.375 121.701 121.927 121.431 121.348C121.169 120.76 121.039 120.074 121.039 119.29C121.039 118.506 121.169 117.825 121.431 117.246C121.701 116.658 122.079 116.205 122.565 115.888C123.05 115.571 123.619 115.412 124.273 115.412C124.917 115.412 125.481 115.571 125.967 115.888C126.461 116.205 126.839 116.658 127.101 117.246C127.371 117.825 127.507 118.506 127.507 119.29C127.507 120.074 127.371 120.76 127.101 121.348C126.839 121.927 126.461 122.375 125.967 122.692C125.481 123.009 124.917 123.168 124.273 123.168ZM124.273 122.51C125.057 122.51 125.673 122.225 126.121 121.656C126.569 121.077 126.793 120.289 126.793 119.29C126.793 118.291 126.569 117.507 126.121 116.938C125.673 116.359 125.057 116.07 124.273 116.07C123.489 116.07 122.873 116.359 122.425 116.938C121.977 117.507 121.753 118.291 121.753 119.29C121.753 120.289 121.977 121.077 122.425 121.656C122.873 122.225 123.489 122.51 124.273 122.51ZM131.751 123H130.911L128.153 115.58H128.881L131.331 122.3L133.781 115.58H134.509L131.751 123ZM142.573 113.06C144.066 113.06 145.214 113.494 146.017 114.362C146.82 115.221 147.221 116.448 147.221 118.044C147.221 119.631 146.824 120.853 146.031 121.712C145.247 122.571 144.122 123 142.657 123H139.661V113.06H142.573ZM142.573 122.328C143.842 122.328 144.808 121.964 145.471 121.236C146.143 120.499 146.479 119.435 146.479 118.044C146.479 116.644 146.143 115.575 145.471 114.838C144.808 114.101 143.842 113.732 142.573 113.732H140.361V122.328H142.573ZM148.601 119.29C148.601 118.553 148.727 117.89 148.979 117.302C149.231 116.714 149.6 116.252 150.085 115.916C150.58 115.58 151.163 115.412 151.835 115.412C152.47 115.412 153.025 115.571 153.501 115.888C153.977 116.205 154.341 116.653 154.593 117.232C154.854 117.811 154.99 118.478 154.999 119.234L155.013 119.472H149.315C149.343 120.415 149.581 121.157 150.029 121.698C150.477 122.239 151.079 122.51 151.835 122.51C152.339 122.51 152.792 122.37 153.193 122.09C153.604 121.801 153.907 121.409 154.103 120.914L154.831 120.97C154.616 121.642 154.234 122.179 153.683 122.58C153.142 122.972 152.526 123.168 151.835 123.168C151.163 123.168 150.58 123 150.085 122.664C149.6 122.328 149.231 121.866 148.979 121.278C148.727 120.69 148.601 120.027 148.601 119.29ZM154.271 118.856C154.206 117.96 153.954 117.274 153.515 116.798C153.086 116.313 152.526 116.07 151.835 116.07C151.116 116.07 150.533 116.317 150.085 116.812C149.646 117.307 149.394 117.988 149.329 118.856H154.271ZM157.459 115.58L157.501 117.568L157.403 117.512C157.478 116.812 157.748 116.289 158.215 115.944C158.682 115.589 159.256 115.412 159.937 115.412C160.73 115.412 161.337 115.678 161.757 116.21C162.186 116.733 162.401 117.405 162.401 118.226V123H161.729V118.562C161.729 117.759 161.57 117.139 161.253 116.7C160.945 116.261 160.455 116.042 159.783 116.042C159.074 116.042 158.514 116.271 158.103 116.728C157.702 117.185 157.501 117.797 157.501 118.562V123H156.829V115.58H157.459ZM165.403 115.58V123H164.731V115.58H165.403ZM165.431 113.284V114.39H164.703V113.284H165.431ZM172.219 117.75C172.126 117.237 171.878 116.831 171.477 116.532C171.085 116.224 170.604 116.07 170.035 116.07C169.484 116.07 169.036 116.21 168.691 116.49C168.346 116.761 168.182 117.12 168.201 117.568C168.21 117.932 168.383 118.231 168.719 118.464C169.064 118.688 169.596 118.893 170.315 119.08C170.959 119.229 171.477 119.393 171.869 119.57C172.27 119.738 172.574 119.953 172.779 120.214C172.994 120.466 173.101 120.779 173.101 121.152C173.101 121.581 172.98 121.95 172.737 122.258C172.504 122.557 172.172 122.785 171.743 122.944C171.323 123.093 170.842 123.168 170.301 123.168C169.75 123.168 169.246 123.065 168.789 122.86C168.332 122.655 167.963 122.37 167.683 122.006C167.412 121.642 167.272 121.231 167.263 120.774L167.963 120.704C167.982 121.049 168.094 121.362 168.299 121.642C168.504 121.913 168.78 122.127 169.125 122.286C169.48 122.435 169.872 122.51 170.301 122.51C170.936 122.51 171.444 122.398 171.827 122.174C172.21 121.941 172.401 121.595 172.401 121.138C172.401 120.858 172.308 120.634 172.121 120.466C171.944 120.289 171.729 120.153 171.477 120.06C171.225 119.967 170.898 119.869 170.497 119.766C170.376 119.729 170.245 119.691 170.105 119.654C169.517 119.495 169.041 119.332 168.677 119.164C168.313 118.987 168.024 118.772 167.809 118.52C167.604 118.259 167.496 117.946 167.487 117.582C167.478 117.162 167.585 116.789 167.809 116.462C168.033 116.126 168.346 115.869 168.747 115.692C169.158 115.505 169.629 115.412 170.161 115.412C170.861 115.412 171.468 115.622 171.981 116.042C172.494 116.462 172.807 117.003 172.919 117.666L172.219 117.75Z" fill="#222222"/>
</svg>
