<svg width="120" height="106" viewBox="0 0 120 106" fill="none" xmlns="http://www.w3.org/2000/svg">
<rect width="120" height="106" rx="10" fill="#FF6E1F"/>
<g clip-path="url(#clip0_33_25)">
<path d="M45.3523 43.1909C42.6218 43.1909 40.4031 45.4097 40.4031 48.1401C40.4031 50.8588 42.6219 53.0814 45.3523 53.0814C48.0828 53.0814 50.2937 50.8626 50.2937 48.1401C50.2819 45.4096 48.071 43.1909 45.3523 43.1909Z" fill="#FDFCFA"/>
<path d="M70.0002 34.4219C70.0002 33.1133 70.1798 31.8516 70.4689 30.6407H23.1602C21.4219 30.6407 20 32.0509 20 33.8009V71.7307L26.7304 64.8714C28.0585 63.5198 29.8202 62.7816 31.7109 62.7816C33.6015 62.7816 35.3711 63.5316 36.6914 64.8714L45.3515 73.6916L53.9999 64.8597C55.3202 63.5081 57.078 62.7699 58.9804 62.7699C60.8592 62.7699 62.6287 63.5199 63.9608 64.8597L84.2107 85.5196H86.6599C88.4216 85.5196 89.8396 84.0977 89.8396 82.3594V50.0005C88.6208 50.2896 87.3591 50.4693 86.0505 50.4693C77.199 50.4693 70.0002 43.2697 70.0002 34.4219ZM45.3523 55.1798C41.4617 55.1798 38.3015 52.0196 38.3015 48.1408C38.3015 44.2502 41.4617 41.09 45.3523 41.09C49.2312 41.09 52.3913 44.2502 52.3913 48.1408C52.3913 52.0196 49.2312 55.1798 45.3523 55.1798Z" fill="#FDFCFA"/>
<path d="M44.6023 75.9407L35.1805 66.3392C34.2586 65.3899 33.0321 64.8783 31.7117 64.8783C30.3914 64.8783 29.1609 65.3978 28.2429 66.3392L20.0007 74.7375V82.3664C20.0007 84.1047 21.4226 85.5266 23.1609 85.5266L54.0007 85.5305L44.6102 75.9524L44.6023 75.9407Z" fill="#FDFCFA"/>
<path d="M86.0511 20.469C78.3714 20.469 72.1022 26.719 72.1022 34.4179C72.1022 42.0976 78.3638 48.3668 86.0511 48.3668C93.7425 48.3668 100 42.1052 100 34.4179C100 26.7307 93.7501 20.469 86.0511 20.469ZM93.0784 33.8399C92.8791 34.0509 92.6096 34.1602 92.3401 34.1602C92.0706 34.1602 91.801 34.0509 91.5901 33.8399L87.1018 29.3594V42.0314C87.1018 42.6095 86.6331 43.0822 86.051 43.0822C85.4729 43.0822 85.0002 42.6134 85.0002 42.0314V29.3594L80.5119 33.8399C80.1018 34.2501 79.4417 34.2501 79.0315 33.8399C78.6213 33.4298 78.6213 32.7696 79.0315 32.3594L85.3126 26.0704C85.422 25.9805 85.5314 25.8985 85.6642 25.8516C85.9142 25.7422 86.215 25.7422 86.465 25.8516C86.6056 25.9024 86.715 25.9805 86.8165 26.0704L93.0977 32.3594C93.4883 32.7696 93.4885 33.4297 93.0784 33.8399Z" fill="#FDFCFA"/>
<path d="M58.9802 64.8708C57.6599 64.8708 56.4216 65.3903 55.5114 66.3316L46.8318 75.1832L56.9607 85.5231H81.2806L62.4487 66.3392C61.5307 65.39 60.2888 64.8708 58.9802 64.8708Z" fill="#FDFCFA"/>
</g>
<defs>
<clipPath id="clip0_33_25">
<rect width="80" height="65.9996" fill="white" transform="translate(20 20)"/>
</clipPath>
</defs>
</svg>
